# xmcd
#
# Track frame offsets: 
#        150
#        19632
#        33689
#        47975
#        62252
#        79669
#        91786
#        112863
#        122406
#        138313
#        153241
#        167857
#        185125
#        201285
#        222813
#
# Disc length: 3166 seconds
#
# Revision: 0
# Processed by: cddbd v1.5.2PL0 Copyright (c) Steve Scherf et al.
# Submitted via: ExactAudioCopy v1.0b3
#
DISCID=c20c5c0f
DTITLE=Curly and John - Right from the Heart
DYEAR=1900
DGENRE=Country
TTITLE0=You Are My Strongest Weakness
TTITLE1=Heartache
TTITLE2=The Banks Of The Ohio
TTITLE3=Country Roads
TTITLE4=Take My Hand
TTITLE5=Wer Liebe sucht
TTITLE6=I Will Always Love You
TTITLE7=Tennessee Waltz
TTITLE8=You Needed Me
TTITLE9=Thy Word
TTITLE10=Zusammensteh'n
TTITLE11=You Say You Will
TTITLE12=Always On My Mind
TTITLE13=Lord, Have Mercy On A Working Man
TTITLE14=Blue Kentucky Girl
EXTD=
EXTT0=
EXTT1=
EXTT2=
EXTT3=
EXTT4=
EXTT5=
EXTT6=
EXTT7=
EXTT8=
EXTT9=
EXTT10=
EXTT11=
EXTT12=
EXTT13=
EXTT14=
PLAYORDER=
